<?xml version="1.0" standalone="no"?>
<!DOCTYPE svg PUBLIC "-//W3C//DTD SVG 20010904//EN"
 "http://www.w3.org/TR/2001/REC-SVG-20010904/DTD/svg10.dtd">
<svg version="1.0" xmlns="http://www.w3.org/2000/svg"
 width="284.000000pt" height="177.000000pt" viewBox="0 0 284.000000 177.000000"
 preserveAspectRatio="xMidYMid meet">
<metadata>
Created by potrace 1.16, written by Peter Selinger 2001-2019
</metadata>
<g transform="translate(0.000000,177.000000) scale(0.100000,-0.100000)"
fill="#000000" stroke="none">
<path d="M770 1551 c-15 -30 -14 -813 2 -829 17 -17 1279 -17 1296 0 9 9 12
115 12 414 0 221 -3 409 -6 418 -6 14 -72 16 -650 16 -626 0 -644 -1 -654 -19z
m1258 -388 l-3 -338 -605 0 -605 0 -3 338 -2 337 610 0 610 0 -2 -337z"/>
<path d="M1385 682 l-620 -2 -109 -218 c-61 -123 -107 -226 -105 -237 4 -20
15 -20 869 -20 854 0 865 0 869 20 2 11 -43 113 -105 236 l-108 217 -35 4
c-20 1 -315 2 -656 0z m698 -137 c31 -63 57 -120 57 -125 0 -7 -252 -10 -720
-10 -396 0 -720 3 -720 8 0 4 25 60 57 125 l57 117 606 0 605 0 58 -115z
m-483 -175 c4 -14 10 -52 14 -83 l7 -57 -200 0 c-188 0 -201 1 -201 18 0 24
20 135 27 145 2 4 81 6 176 5 l171 -3 6 -25z"/>
<path d="M1080 440 c0 -20 6 -20 251 -20 233 0 250 1 247 18 -3 16 -24 17
-251 20 -242 2 -247 2 -247 -18z"/>
</g>
</svg>
